M48
;GenerationSoftware,Autodesk,EAGLE,9.6.2*%
;CreationDate,2024-02-11T22:58:23Z*%
FMAT,2
ICI,OFF
METRIC,TZ,000.000
T8C0.305
T7C0.350
T6C0.650
T5C0.737
T4C0.750
T3C0.800
T2C1.016
T1C3.175
%
G90
M71
T1
X45704Y60312
X80454Y60312
X45704Y3687
T2
X12322Y3190
X9782Y3190
X7242Y3190
X4702Y3190
X2162Y3190
X87726Y3190
X85186Y3190
X82646Y3190
X80106Y3190
X77566Y3190
X75026Y3190
X21730Y60810
X19190Y60810
X16650Y60810
X14110Y60810
X11570Y60810
X9030Y60810
X6490Y60810
X37479Y60810
X34939Y60810
X3190Y51641
X3190Y49101
X24078Y29854
X25874Y28058
X27670Y26262
X29466Y24466
X31262Y22670
X33058Y20874
X34854Y19078
X11506Y20874
X13302Y22670
X15098Y24466
X16894Y26262
X18690Y28058
X20486Y29854
X22282Y31650
X20486Y8302
X18690Y10098
X16894Y11894
X15098Y13690
X13302Y15486
X11506Y17282
X9710Y19078
X33058Y17282
X31262Y15486
X29466Y13690
X86698Y42121
X25874Y10098
X24078Y8302
X22282Y6506
X56830Y20874
X58626Y22670
X60422Y24466
X62218Y26262
X64014Y28058
X65810Y29854
X67606Y31650
X65810Y8302
X64014Y10098
X62218Y11894
X60422Y13690
X58626Y15486
X56830Y17282
X55034Y19078
X78383Y17282
X76587Y15486
X74791Y13690
X72995Y11894
X71198Y10098
X69402Y8302
X67606Y6506
X69402Y29854
X71198Y28058
X72995Y26262
X74791Y24466
X76587Y22670
X78383Y20874
X80179Y19078
X46214Y15437
X43674Y15437
X46214Y17978
X43674Y17978
X46214Y20518
X43674Y20518
X46214Y23057
X43674Y23057
X46214Y25597
X43674Y25597
X46214Y28137
X43674Y28137
X46214Y30677
X43674Y30677
X14862Y3190
X86698Y44661
X27670Y11894
T3
X36313Y5223
X26858Y58894
X30239Y59800
X83667Y52121
X86698Y50371
X6241Y40916
X3766Y43391
X32217Y8091
X56711Y7701
X53176Y4165
X8751Y28917
X5216Y32452
T4
X19252Y36905
X20666Y38319
X52152Y13466
X50738Y14880
X15500Y32264
X15500Y34264
T5
X87333Y37772
X86063Y37772
X40274Y60810
X41544Y60810
X2555Y55990
X3825Y55990
T6
X83748Y22167
X4640Y22167
X6140Y22167
X62527Y3176
X64004Y3436
X85248Y22167
X25771Y3486
X26831Y2425
X77012Y8618
X78073Y9678
X80034Y26656
X78973Y27717
X8413Y13081
X7352Y14142
X81476Y13081
X82536Y14142
X12876Y8618
X11816Y9678
X50247Y22534
X51747Y22534
T7
X62176Y4770
X77771Y11123
X79470Y9424
X5777Y13971
X7476Y15670
X10397Y9461
X12096Y11160
X82171Y15623
X83870Y13924
X18979Y34632
X18275Y33928
X17100Y30900
X33900Y30800
X35800Y29000
X37360Y27310
X36800Y25000
X33300Y26500
X31400Y28200
X54270Y13850
X57100Y30440
X59060Y32480
X62900Y33150
X64860Y33130
X66660Y34160
X10280Y59270
X7760Y59270
X85100Y7800
X84630Y16720
X73780Y7080
X80850Y10860
X21000Y2200
X15900Y5900
X9200Y5600
X4600Y6700
X8600Y10800
X40200Y19083
X44251Y50300
X35800Y48504
X62480Y44170
X62500Y48200
X60100Y45800
X55800Y29900
X56710Y23170
X45852Y42745
X43037Y39495
X45148Y42095
X43740Y40145
X45852Y44045
X15841Y29720
X16723Y56048
X46439Y24327
X49700Y27589
X18857Y56868
X46365Y21788
X50456Y28312
X55672Y54362
X26748Y39500
X54250Y31066
X53119Y32266
X53119Y31066
X51987Y31066
X54677Y54362
X38700Y29372
X38700Y28376
X38700Y30367
X45247Y48732
X44251Y48732
X43256Y48732
X38700Y20078
X38700Y19083
X38700Y18088
X28738Y39500
X27743Y39500
X37400Y49499
X37400Y48504
X37400Y47508
X44387Y35495
X14590Y55228
X63800Y30700
X49426Y52281
X49426Y51286
X49426Y50290
X48034Y13019
X47250Y13019
X46466Y13019
X61304Y44106
X61304Y50000
X52839Y52281
X53049Y59021
X53049Y60017
X52345Y60720
X57663Y51052
X58367Y51756
X58367Y52751
X51350Y60720
X34539Y12499
X34539Y13494
X35243Y14198
X36238Y14198
X43053Y12024
X43053Y13019
X3190Y58810
X53119Y34267
X27330Y37052
X49467Y33745
X46927Y33745
X44387Y33745
X56143Y26448
X27553Y33330
X53160Y24544
X29597Y31781
X61180Y4770
X60477Y4067
X60477Y3071
X66429Y2980
X67424Y2980
X68420Y2980
X38787Y32100
X39782Y32100
X33435Y52304
X33435Y51309
X33435Y50314
X56667Y51052
X33435Y49318
X50816Y4530
X51811Y4530
X51811Y7928
X50816Y7928
X49645Y14718
X65377Y49980
X66373Y49980
X67368Y49980
X68363Y49980
X69067Y50683
X69067Y51679
X72686Y49980
X71690Y49980
X70987Y50683
X70987Y51679
X84099Y32799
X84099Y33794
X84099Y34790
X84099Y35785
X84099Y36780
X83396Y37484
X82400Y37484
X84099Y41103
X84099Y40107
X83396Y39403
X82400Y39403
X38229Y4530
X30476Y32910
X29772Y33614
X29069Y34318
X28365Y35021
X28365Y36017
X29069Y36721
X19793Y40828
X20789Y40828
X21784Y40828
X22780Y40828
X23775Y40828
X24479Y41532
X24479Y42528
X28097Y40828
X43053Y14015
X65669Y57949
X65669Y58944
X66373Y59648
X67368Y59648
X68363Y59648
X52839Y53276
X69067Y58944
X51426Y52281
X56667Y52362
X51426Y50290
X56667Y59117
X69067Y57949
X70987Y57474
X70987Y58469
X70987Y59465
X70987Y60460
X70987Y61455
X40923Y6229
X40923Y5233
X44466Y13019
X36238Y12888
X50034Y13019
X39224Y6133
X40220Y4530
X39224Y4530
X26398Y49318
X26398Y50314
X76130Y34086
X75135Y34086
X74431Y34790
X72610Y58469
X67368Y58338
X72610Y60460
X67368Y51583
X74431Y35785
X74431Y36780
X75135Y37484
X76130Y37484
X76605Y39613
X75610Y39613
X74614Y39613
X73619Y39613
X27812Y49318
X22780Y49187
X32021Y51309
X22780Y42432
X9119Y38876
X8123Y38876
X7420Y39580
X7420Y40575
X7420Y41570
X8123Y42274
X9119Y42274
X8598Y51021
X75610Y41027
X75741Y35785
X73619Y41027
X82496Y35785
X7603Y51021
X6607Y51021
X5612Y51021
X44387Y32500
X46927Y32500
X48197Y32500
X49467Y32500
X8598Y49607
X8730Y40575
X6607Y49607
X15485Y40575
X18446Y14823
X17064Y14279
X22387Y12962
X25436Y12908
X14924Y20426
X16266Y21768
X19238Y25448
X20934Y26436
X46538Y40390
X42350Y41850
X39202Y42493
X38902Y41597
X52839Y51286
X52839Y50290
X37234Y14198
X54968Y59021
X54968Y60017
X55672Y60720
X56667Y60720
X57663Y60720
X58658Y60720
X59653Y60720
X60357Y60017
X60357Y59021
X38902Y44246
X60248Y17730
X61236Y16034
X64916Y13062
X66258Y11720
X73776Y22231
X73722Y19183
X72406Y13860
X71861Y15242
X27102Y40828
X26398Y41532
X26398Y42528
X15389Y36885
X16384Y42274
X15389Y42274
X16384Y44194
X15389Y44194
X49986Y39647
X49986Y40643
X43037Y44246
T8
X67606Y17201
X66668Y16262
X67606Y15323
X68545Y16262
X70422Y18139
X71361Y19078
X70422Y20017
X69484Y19078
X67606Y20955
X68545Y21894
X67606Y22833
X66668Y21894
X64790Y20017
X63852Y19078
X64790Y18139
X65729Y19078
X65729Y20955
X22282Y19078
X21343Y20017
X20405Y20955
X23221Y18139
X24159Y17201
X21343Y18139
X20405Y17201
X23221Y20017
X24159Y20955
X22282Y20955
X21343Y21894
X22282Y22833
X23221Y21894
X25098Y20017
X26037Y19078
X25098Y18139
X24159Y19078
X22282Y17201
X23221Y16262
X22282Y15323
X21343Y16262
X19466Y18139
X18527Y19078
X19466Y20017
X20405Y19078
X66668Y20017
X69484Y17201
X68545Y18139
X69484Y20955
X68545Y20017
X65729Y17201
X66668Y18139
X67606Y19078
X15389Y45707
X12989Y44897
X12989Y45893
X10998Y44897
X10998Y45893
X11994Y44897
X11994Y45893
X81496Y33544
X82400Y40917
X80000Y40107
X80000Y41103
X78010Y40107
X78010Y41103
X79005Y40107
X79005Y41103
X20539Y43432
X27912Y42528
X27102Y44927
X28097Y44927
X27102Y46918
X28097Y46918
X27102Y45923
X28097Y45923
X72500Y51679
X71690Y54079
X72686Y54079
X71690Y56069
X72686Y56069
X71690Y55074
X72686Y55074
X36984Y7133
X51155Y6229
X43547Y8629
X44542Y8629
X43547Y10619
X44542Y10619
X43547Y9624
X44542Y9624
X58908Y58117
X52345Y56621
X51350Y56621
X52345Y54631
X51350Y54631
X52345Y55626
X51350Y55626
X39500Y33645
X54607Y27578
X53723Y28462
X52839Y29346
X25192Y34560
X24308Y35444
X23424Y36328
X25998Y22794
X27875Y19078
X63891Y22794
X67606Y24671
X51535Y59021
M30